<svg xmlns="http://www.w3.org/2000/svg"  viewBox="0 0 512 512" width="64px" height="64px"><g data-name="&lt;Group&gt;"><g data-name="&lt;Group&gt;"><path fill="#00acea" d="M363.01,211.87v38.29a10,10,0,0,1-10,10H135.66a10,10,0,0,1-10-10V211.87a10,10,0,0,1,10-10H353.01A10,10,0,0,1,363.01,211.87Z" data-name="&lt;Group&gt;"/><path fill="#00efd1" d="M351.55,260.16v.3L324.76,475.02a20.01,20.01,0,0,1-19.83,17.33H189.05a20.007,20.007,0,0,1-19.75-16.86L137.6,260.46v-.3ZM281.34,432.2l11-117.98h-96l11,117.98Z" data-name="&lt;Group&gt;"/><path fill="#fedb41" d="M344.86,201.48v.39H235.34l22.03-99.55A100.307,100.307,0,0,1,344.86,201.48Z" data-name="&lt;Group&gt;"/><polygon fill="#00acea" points="292.34 314.22 281.34 432.2 207.34 432.2 196.34 314.22 292.34 314.22" data-name="&lt;Group&gt;"/><path fill="#fedb41" d="M257.37,102.32l-22.03,99.55H144.29v-.39a100.354,100.354,0,0,1,113.08-99.16Z" data-name="&lt;Group&gt;"/></g><g data-name="&lt;Group&gt;"><path fill="#083863" d="M292.34,304h-96a10.178,10.178,0,0,0-9.957,11.094l11,117.907a9.937,9.937,0,0,0,9.957,9h74a9.915,9.915,0,0,0,9.957-8.971l11-117.931a10.194,10.194,0,0,0-2.566-7.749A10.082,10.082,0,0,0,292.34,304ZM272.229,422H216.451l-9.136-98h74.049Z" data-name="&lt;Compound Path&gt;"/><path fill="#083863" d="M294.3,32.873a29.888,29.888,0,0,1,25.756-.569l62.189,27.9a10,10,0,1,0,8.188-18.248l-62.193-27.9A50,50,0,0,0,258.956,48.87l-9.462,43c-1.53-.068-3.057.126-4.574.126h-.344a110.06,110.06,0,0,0-109.67,100.163A19.641,19.641,0,0,0,116,211.87v38.29A19.865,19.865,0,0,0,128.905,268.9l30.586,208.049c.006.04-.03-.095-.024-.056A29.679,29.679,0,0,0,189.05,502H304.93a29.959,29.959,0,0,0,29.74-25.816c0-.034.009.021.013-.013L360.6,268.609A19.96,19.96,0,0,0,373,250.16V211.87a20.007,20.007,0,0,0-18.591-19.929,110.613,110.613,0,0,0-85.03-97.62l9.1-41.129A29.883,29.883,0,0,1,294.3,32.873ZM244.585,112h.281c.075,0,.152-.176.228-.176L227.311,192H154.835C159.792,147,198.171,112,244.585,112ZM353,212v38H136V212h99.313l.037,0,.045,0ZM314.845,473.465A9.962,9.962,0,0,1,304.93,482H189.05a9.879,9.879,0,0,1-9.867-8.291L149.138,270H340.261ZM334.294,192H247.8l17.264-78.013A90.441,90.441,0,0,1,334.294,192Z" data-name="&lt;Compound Path&gt;"/></g></g></svg>